<svg width="233" height="233" xmlns="http://www.w3.org/2000/svg" xmlns:xlink="http://www.w3.org/1999/xlink" overflow="hidden"><defs><clipPath id="clip0"><path d="M445 148 678 148 678 381 445 381Z" fill-rule="evenodd" clip-rule="evenodd"/></clipPath></defs><g clip-path="url(#clip0)" transform="translate(-445 -148)"><path d="M508.5 282.145 523.145 267.5 545.856 267.5 560.5 282.145 560.5 302.856 545.856 317.5 523.145 317.5 508.5 302.856Z" stroke="#000000" stroke-width="3" stroke-linecap="round" stroke-miterlimit="8" fill="#A6A6A6" fill-rule="evenodd" fill-opacity="0.458824"/><path d="M608.5 170.124 628.124 150.5 656.876 150.5 676.5 170.124 676.5 197.876 656.876 217.5 628.124 217.5 608.5 197.876Z" stroke="#000000" stroke-width="3" stroke-linecap="round" stroke-miterlimit="8" fill="#A6A6A6" fill-rule="evenodd" fill-opacity="0.458824"/><path d="M508.5 242.5 577.084 239.842 530.467 189.467 580.842 236.084 583.5 167.5 586.158 236.084 636.533 189.467 589.916 239.842 658.5 242.5 589.916 245.158 636.533 295.533 586.158 248.916 583.5 317.5 580.842 248.916 530.467 295.533 577.084 245.158Z" stroke="#000000" stroke-width="3" stroke-linecap="round" stroke-miterlimit="8" fill="#FFFFFF" fill-rule="evenodd"/><path d="M466.5 330.801 478.801 318.5 496.199 318.5 508.5 330.801 508.5 348.199 496.199 360.5 478.801 360.5 466.5 348.199Z" stroke="#000000" stroke-width="3" stroke-linecap="round" stroke-miterlimit="8" fill="#A6A6A6" fill-rule="evenodd" fill-opacity="0.458824"/><path d="M446 365.565 451.565 360 460.435 360 466 365.565 466 373.435 460.435 379 451.565 379 446 373.435Z" stroke="#000000" stroke-width="2.13333" stroke-linecap="round" stroke-miterlimit="8" fill="#A6A6A6" fill-rule="evenodd" fill-opacity="0.458824"/><path d="M492.5 311.873 501.873 302.5 516.128 302.5 525.5 311.873 525.5 325.128 516.128 334.5 501.873 334.5 492.5 325.128Z" stroke="#000000" stroke-width="2.66667" stroke-linecap="round" stroke-miterlimit="8" fill="#A6A6A6" fill-rule="evenodd" fill-opacity="0.458824"/></g></svg>